<svg width="504" height="625" viewBox="0 0 504 625" fill="none" xmlns="http://www.w3.org/2000/svg">
<path d="M360.088 57.3469L331.811 85.9777C316.828 72.4698 296.924 71.2952 288.845 72.3964C256.529 85.9043 249.185 120.359 249.552 135.898C243.089 130.612 235.352 137.122 232.292 141.037L185.287 168.567C155.909 120.702 173.046 104.82 185.287 102.863C180.88 51.7675 203.771 31.4078 215.767 27.6148C268.281 -2.11719 270.851 -0.648938 303.902 0.452248C330.342 1.3332 344.297 38.7491 347.969 57.3469H360.088Z" fill="#EBD50D"/>
<path d="M74.4147 422.495C60.8645 412.693 42.9104 380.077 79.4961 328.028C92.1994 307.566 126.027 258.85 159.709 227.68L174.953 252.675C188.987 255.738 217.128 252.748 217.418 216.285L232.299 219.593C242.946 233.316 270.046 260.688 293.275 260.394C301.139 258.066 319.263 250.396 328.845 238.339C339.249 236.747 361.874 235.766 369.133 244.588C373.004 248.999 381.763 260.1 385.828 269.216C384.256 279.018 377.408 298.475 362.599 297.887C357.518 298.99 348.88 306.562 354.977 328.028L343.363 361.478C340.585 372.905 342.428 390.942 362.67 395.662C364.729 395.901 366.87 396.235 369.133 396.645V378.893L395.991 393.824C385.066 396.45 376.233 397.217 369.133 396.645C366.795 396.456 364.645 396.122 362.67 395.662C345.023 393.612 333.395 398.532 302.712 422.495C296.663 428.499 286.815 447.491 295.816 475.426C292.428 474.814 283.911 474.544 276.943 478.367C270.167 471.751 256.327 455.357 255.165 442.712C255.044 434.38 252.407 416.026 242.825 409.263L238.469 393.824L252.262 389.413C236.897 367.481 201.666 324.499 183.664 328.028V324.72C169.75 319.084 136.843 315.089 116.517 344.201C105.871 347.387 82.5449 367.506 74.4147 422.495Z" fill="#F0AD00"/>
<path d="M296.557 260.332C268.942 258.864 243.431 232.558 234.128 219.588H238.902L241.84 203.438L238.902 206.007L232.659 200.134L238.902 193.16C248.01 177.596 238.535 151.927 232.659 141.037C239.71 131.347 246.859 133.573 249.552 135.898C251.608 93.9063 276.849 76.067 289.213 72.3964C313.009 70.0472 329.485 83.8977 334.749 91.1166L356.783 166.364C362.071 184.864 354.579 204.906 350.173 212.614C339.303 234.932 308.186 233.659 293.987 230.233V237.941H332.913C315.653 256.295 297.292 259.598 296.557 260.332Z" fill="#DBC383"/>
<path d="M338.421 159.023C335.19 159.61 329.73 166.12 327.404 169.301C320.647 163.134 311.369 159.88 307.574 159.023C302.286 157.261 301.454 162.938 301.698 165.997C319.325 192.059 334.749 188.388 335.851 188.388C348.704 184.35 345.766 164.896 345.766 164.162C345.472 160.051 340.747 159.023 338.421 159.023Z" fill="#FF8A00"/>
<path d="M319.693 125.253C305.885 126.428 300.719 110.571 299.862 102.495C300.842 100.66 303.535 99.7792 306.472 110.938C310.145 124.886 319.693 122.317 322.63 122.317C324.981 122.317 328.506 124.275 329.975 125.253C342.02 130.833 338.176 143.729 334.749 149.479C332.105 151.241 330.465 149.479 329.975 148.378C341.726 125.62 318.796 125.306 319.693 125.253Z" fill="#FF8A00"/>
<ellipse cx="4.03922" cy="6.24051" rx="4.03922" ry="6.24051" transform="matrix(0.916647 -0.399697 0.400002 0.916514 276.727 118.939)" fill="#D9D9D9"/>
<ellipse cx="4.03922" cy="6.24051" rx="4.03922" ry="6.24051" transform="matrix(0.916647 -0.399697 0.400002 0.916514 320.794 107.193)" fill="#D9D9D9"/>
<path d="M364.494 154.985C365.67 113.287 346.868 99.6814 337.32 98.0908L357.517 165.997C362.511 163.061 364.25 157.432 364.494 154.985Z" fill="#FF8A00"/>
<path d="M216.869 116.444C201.004 53.0155 210.258 31.5302 216.869 28.716C182.79 37.5255 182.839 88.4248 187.123 112.773C176.547 119.527 175.372 135.409 176.106 142.505C196.965 206.815 222.255 207.72 232.292 200.134C250.213 186.039 239.759 154.863 232.292 141.037C232.292 130.025 216.414 114.609 216.869 116.444Z" fill="#FF8A00"/>
<path d="M176.473 252.257L161.05 227.297C145.186 202.63 144.647 179.579 146.361 171.136C146.361 166.731 156.154 147.767 161.05 138.835C169.57 137.366 171.455 143.117 171.332 146.176L163.62 167.466C164.208 171.283 166.558 169.056 167.66 167.466L177.942 140.67C187.637 133.622 190.551 139.691 190.795 143.606L180.88 171.136C182.349 174.073 184.43 172.36 185.287 171.136L194.468 148.011C207.688 141.845 209.279 149.357 208.422 153.884L198.507 176.642C198.213 181.928 201.078 179.823 202.547 178.11L209.891 159.39C219.292 153.517 222.132 160.858 222.377 165.263L209.891 193.527C214.004 199.987 217.97 211.391 219.439 216.285C219.439 251.229 190.795 254.826 176.473 252.257Z" fill="#DBC383"/>
<path d="M176.106 252.624C179.289 263.024 193.366 283.604 224.213 282.723L195.937 328.606" stroke="#BDBDBD"/>
<path d="M375.144 74.5988C376.246 71.6623 433.533 15.1347 443.081 10.3629C431.208 23.5771 400.997 54.9243 375.144 74.5988Z" fill="#FF8A00"/>
<path d="M392.771 88.9878C395.34 85.9359 488.609 42.4967 502.205 40.8291C482.246 51.6279 432.416 76.378 392.771 88.9878Z" fill="#FF8A00"/>
<path d="M401.585 111.585C404.468 109.624 492.351 94.8674 504 96.6261C484.819 101.044 437.481 110.22 401.585 111.585Z" fill="#FF8A00"/>
<path d="M118.433 343.94C84.6502 347.616 68.1263 445.747 67.3919 447.952L30.3048 468.166C-6.12131 479.633 -2.25348 533.22 4.2337 558.579L61.5167 568.135L30.3048 624H192.607C185.85 606.064 198.604 584.674 205.826 576.221C211.113 571.81 218.555 544.491 221.615 531.382C234.247 492.864 265.802 479.56 280 477.722C260.024 464.491 245.483 416.099 240.71 393.557L253.562 388.779C221.248 341.441 194.81 328.137 185.63 327.401L183.427 325.196C149.351 312.259 125.899 332.302 118.433 343.94Z" fill="#793F82"/>
<path d="M256.941 438.168C258.119 413.844 241.471 404.587 233 403C238.598 424.101 238.77 461.125 238.156 477C254.068 474.069 257.309 449.891 256.941 438.168Z" fill="#0D09FF"/>
<path d="M222 530.191L198.46 525L201.77 532.045C195.885 537.681 177.985 546.011 169.77 549.472C152.409 553.921 138.261 547.618 133.356 543.91L138.138 573.202L60.8966 568.011L30 624H193.31C184.777 611.245 196.866 587.539 203.977 577.281C206.92 576.984 210.107 570.978 211.333 568.011L222 530.191Z" fill="#F900D1"/>
<path d="M137.616 574L61.6179 567.748L3.97666 558.922C-9.82786 492.432 15.6028 471.151 30.0437 468.822L67.4921 446.757C82.7652 362.908 107.633 343.417 118.158 344.153C137.543 315.321 170.047 319.391 183.876 325.03L185.712 327.236C209.502 331.649 241.15 370.018 254 388.651L239.681 393.8L155.973 412.923L151.568 448.963C158.617 473.382 139.085 496.404 128.438 504.862L137.616 574Z" fill="#8500D6"/>
<path d="M191.091 512.186L142.727 491C142.727 493.63 134.242 502.323 130 506.341L134.727 544.329C137.927 550.174 152.545 551.878 159.455 552C172.836 551.708 193.394 538.729 202 532.275L191.091 512.186Z" fill="#ECE0B5"/>
<path d="M191.323 511.661L142 490.365C155.35 470.39 153.991 454.137 151.642 448.506L155.721 413.625L233.228 396C245.095 473.254 235.948 500.891 229.891 505.052C222.77 516.802 212.09 516.802 207.64 515.333C204.673 512.983 195.526 511.906 191.323 511.661Z" fill="#ECE0B5"/>
<path d="M217.278 474.876C204.904 479.577 192.235 472.918 187.447 469C184.206 469 184.869 471.448 185.605 472.673L199.232 477.814C218.383 478.696 219.242 476.223 217.278 474.876Z" fill="#E516E9"/>
<ellipse cx="175" cy="429.5" rx="4" ry="4.5" fill="#E516E9"/>
<ellipse cx="223" cy="418.5" rx="4" ry="4.5" fill="#E516E9"/>
<path d="M212.871 435.944C205.302 437.122 202.47 421.213 202 413.11C202.537 411.269 204.013 410.385 205.624 421.581C207.637 435.575 212.871 432.997 214.481 432.997C215.77 432.997 217.703 434.962 218.508 435.944C225.111 441.542 223.004 454.48 221.125 460.25C219.675 462.018 218.776 460.25 218.508 459.145C224.95 436.312 212.379 435.997 212.871 435.944Z" fill="#E516E9"/>
<path d="M186 326.544C136.641 334.464 129.966 386.072 132.798 410.885C172.108 451.076 146.222 490.949 128.365 505.862C112.404 510.262 96.8378 500.85 91.0496 495.594C54.3995 450.709 81.9364 420.42 100.286 410.885C97.6259 374.215 111.739 351.357 119.128 344.512C137.158 315.762 171.222 320.554 186 326.544Z" fill="#0D09FF"/>
<path d="M395.047 272C244.566 344.635 191.775 608.294 186 625L292.322 618.463C413.522 562.679 399.689 375.142 395.047 272Z" fill="white"/>
</svg>
