<svg width="439" height="430" viewBox="0 0 439 430" fill="none" xmlns="http://www.w3.org/2000/svg">
<path d="M403.5 215.5C403.5 314.902 321.353 395.5 220 395.5C118.647 395.5 36.5 314.902 36.5 215.5C36.5 116.098 118.647 35.5 220 35.5C321.353 35.5 403.5 116.098 403.5 215.5Z" stroke="#DEDEDE"/>
<path d="M419.5 216C419.5 323.962 330.19 411.5 220 411.5C109.81 411.5 20.5 323.962 20.5 216C20.5 108.038 109.81 20.5 220 20.5C330.19 20.5 419.5 108.038 419.5 216Z" stroke="#DEDEDE"/>
<path d="M438.5 215C438.5 333.455 340.46 429.5 219.5 429.5C98.5398 429.5 0.5 333.455 0.5 215C0.5 96.5446 98.5398 0.5 219.5 0.5C340.46 0.5 438.5 96.5446 438.5 215Z" stroke="#DEDEDE"/>
<ellipse cx="220" cy="215.5" rx="174" ry="170.5" fill="white"/>
</svg>
