<svg width="508" height="401" viewBox="0 0 508 401" fill="none" xmlns="http://www.w3.org/2000/svg">
<path d="M360.627 180.819C375.976 194.502 442.743 173.28 474.208 160.958L466.528 132.848L419.839 145.605C388.859 156.056 365.282 147.27 357.367 141.57C351.222 133.649 334.439 126.454 326.815 123.847C271.814 124.392 245.293 182.124 244.661 184.366C239.749 208.881 222.104 227.772 213.896 234.153C190.464 234.596 166.671 212.572 157.704 201.504C133.319 182.676 101.896 188.475 89.233 193.728L84.288 175.63L35.2125 222.144C56.2118 227.166 98.8139 237.292 101.227 237.626C103.641 237.96 98.7257 224.93 95.9666 218.373C113.141 208.383 130.319 215.608 136.761 220.468C146.639 228.694 175.672 251.08 188.955 261.245C242.973 282.901 262.969 228.607 262.759 227.837C265.959 210.41 283.188 183.219 291.35 171.609C315.709 149.063 347.684 168.355 360.627 180.819Z" fill="#00FFA3" stroke="#00FFA3"/>
<path d="M466.596 172.556L474.208 160.958L414.541 179.33C386.563 188.63 367.525 184.314 361.504 180.993C326.737 148.449 300.178 160.92 291.245 171.224L283.843 183.591C291.139 176.301 303.767 171.526 309.169 170.05C320.815 165.627 362.556 189.396 364.24 191.005C376.558 200.881 437.61 182.821 466.596 172.556Z" fill="#D9D9D9"/>
<path d="M180.185 268.607C211.361 289.221 234.964 268.261 242.869 255.204C222.72 271.303 197.338 264.61 187.166 259.251L138.936 222.357C121.174 208.34 102.889 213.86 95.9667 218.373L99.053 226.633C110.671 221.804 122.625 226.4 127.15 229.302L180.185 268.607Z" fill="#D9D9D9"/>
<path d="M31.4587 232.688L34.4408 222.355L102.209 238.185L94.7725 248.907L31.4587 232.688Z" fill="#D9D9D9"/>
<path d="M157.345 353.472L149.98 326.517L114.797 337.372L122.478 365.482L157.345 353.472Z" fill="#00FFA3"/>
<path d="M296.431 278.226L289.066 251.271L253.883 262.126L261.563 290.236L296.431 278.226Z" fill="#00FFA3"/>
<path d="M336.352 211.867L328.987 184.912L293.804 195.767L301.485 223.877L336.352 211.867Z" fill="#00FFA3"/>
<path d="M398.718 251.933L391.353 224.979L356.169 235.833L363.85 263.943L398.718 251.933Z" fill="#00FFA3"/>
<path d="M240.093 339.139L232.729 312.184L197.545 323.039L205.226 351.149L240.093 339.139Z" fill="#00FFA3"/>
<path d="M152.122 290.344L144.757 263.39L109.574 274.244L117.254 302.354L152.122 290.344Z" fill="#00FFA3"/>
<path d="M464.03 275.469L456.665 248.515L421.482 259.369L429.163 287.479L464.03 275.469Z" fill="#00FFA3"/>
<path d="M472.803 213.483L465.438 186.528L430.255 197.383L437.935 225.493L472.803 213.483Z" fill="#00FFA3"/>
<path d="M445.308 88.5746L437.943 61.6199L402.76 72.4745L410.441 100.584L445.308 88.5746Z" fill="#00FFA3"/>
<path d="M341.69 88.7471L334.325 61.7924L299.142 72.647L306.822 100.757L341.69 88.7471Z" fill="#00FFA3"/>
<path d="M256.73 135.962L249.365 109.007L214.182 119.862L221.863 147.972L256.73 135.962Z" fill="#00FFA3"/>
<path d="M171.632 149.282L164.267 122.327L129.084 133.182L136.764 161.292L171.632 149.282Z" fill="#00FFA3"/>
<path d="M107.231 123.014L99.8663 96.0593L64.6832 106.914L72.3637 135.024L107.231 123.014Z" fill="#00FFA3"/>
<path d="M230.776 83.4644L223.411 56.5096L188.228 67.3643L195.908 95.4742L230.776 83.4644Z" fill="#00FFA3"/>
<path d="M106.483 357.024L114.902 337.757L122.478 365.482L114.479 381.737L106.483 357.024Z" fill="#D9D9D9"/>
<path d="M245.568 281.778L253.988 262.511L261.563 290.236L253.565 306.491L245.568 281.778Z" fill="#D9D9D9"/>
<path d="M285.49 215.419L293.909 196.152L301.485 223.877L293.486 240.132L285.49 215.419Z" fill="#D9D9D9"/>
<path d="M347.855 255.485L356.275 236.218L363.85 263.943L355.852 280.198L347.855 255.485Z" fill="#D9D9D9"/>
<path d="M189.231 342.691L197.651 323.424L205.226 351.149L197.228 367.404L189.231 342.691Z" fill="#D9D9D9"/>
<path d="M101.26 293.896L109.679 274.629L117.254 302.354L109.256 318.609L101.26 293.896Z" fill="#D9D9D9"/>
<path d="M413.168 279.021L421.588 259.754L429.163 287.479L421.164 303.734L413.168 279.021Z" fill="#D9D9D9"/>
<path d="M421.94 217.035L430.36 197.768L437.935 225.493L429.937 241.748L421.94 217.035Z" fill="#D9D9D9"/>
<path d="M394.446 92.1264L402.866 72.8595L410.441 100.584L402.442 116.839L394.446 92.1264Z" fill="#D9D9D9"/>
<path d="M290.828 92.2989L299.247 73.032L306.822 100.757L298.824 117.012L290.828 92.2989Z" fill="#D9D9D9"/>
<path d="M205.868 139.514L214.287 120.247L221.863 147.972L213.864 164.227L205.868 139.514Z" fill="#D9D9D9"/>
<path d="M120.77 152.834L129.189 133.567L136.764 161.292L128.766 177.547L120.77 152.834Z" fill="#D9D9D9"/>
<path d="M56.3689 126.566L64.7884 107.299L72.3638 135.024L64.3653 151.279L56.3689 126.566Z" fill="#D9D9D9"/>
<path d="M179.913 87.0162L188.333 67.7493L195.908 95.4741L187.91 111.729L179.913 87.0162Z" fill="#D9D9D9"/>
<path d="M150.119 369.516L157.451 353.857L157.24 353.087L122.478 365.482L114.479 381.737L150.119 369.516Z" fill="#D9D9D9"/>
<path d="M289.204 294.27L296.536 278.611L296.326 277.841L261.563 290.236L253.565 306.491L289.204 294.27Z" fill="#D9D9D9"/>
<path d="M329.125 227.911L336.457 212.252L336.247 211.482L301.485 223.877L293.486 240.132L329.125 227.911Z" fill="#D9D9D9"/>
<path d="M391.491 267.978L398.823 252.318L398.612 251.548L363.85 263.943L355.852 280.198L391.491 267.978Z" fill="#D9D9D9"/>
<path d="M232.867 355.183L240.199 339.524L239.988 338.754L205.226 351.149L197.228 367.404L232.867 355.183Z" fill="#D9D9D9"/>
<path d="M144.895 306.388L152.227 290.729L152.017 289.959L117.254 302.354L109.256 318.609L144.895 306.388Z" fill="#D9D9D9"/>
<path d="M456.804 291.514L464.136 275.854L463.925 275.084L429.163 287.479L421.164 303.734L456.804 291.514Z" fill="#D9D9D9"/>
<path d="M465.576 229.527L472.908 213.868L472.698 213.098L437.935 225.493L429.937 241.748L465.576 229.527Z" fill="#D9D9D9"/>
<path d="M438.082 104.619L445.414 88.9596L445.203 88.1895L410.441 100.584L402.442 116.839L438.082 104.619Z" fill="#D9D9D9"/>
<path d="M334.463 104.791L341.795 89.1321L341.585 88.3619L306.822 100.757L298.824 117.012L334.463 104.791Z" fill="#D9D9D9"/>
<path d="M249.503 152.006L256.835 136.347L256.625 135.577L221.863 147.972L213.864 164.227L249.503 152.006Z" fill="#D9D9D9"/>
<path d="M164.405 165.326L171.737 149.667L171.527 148.897L136.764 161.292L128.766 177.547L164.405 165.326Z" fill="#D9D9D9"/>
<path d="M100.004 139.058L107.336 123.399L107.126 122.629L72.3637 135.024L64.3653 151.279L100.004 139.058Z" fill="#D9D9D9"/>
<path d="M223.549 99.5086L230.881 83.8494L230.67 83.0792L195.908 95.4741L187.91 111.729L223.549 99.5086Z" fill="#D9D9D9"/>
</svg>
