<svg width="529" height="226" viewBox="0 0 529 226" fill="none" xmlns="http://www.w3.org/2000/svg">
<path d="M359.753 223.468C285.807 222.957 254.784 201.552 248.516 190.913C152.896 244.213 94.8868 219.957 94.8868 223.468C45.9296 215.042 40.7024 178.466 44.2084 161.231C36.0489 160.72 21.0473 148.464 14.5664 142.4C-23.3627 82.3974 24.7658 43.7786 24.7658 39.6295C66.3285 10.2664 118.792 20.1605 139.828 28.7779C160.737 4.26612 192.738 -0.585171 206.124 0.0531565C253.552 4.39378 279.22 46.7574 286.126 67.3967C352.932 28.0757 401.72 76.1205 417.763 105.058C494.513 91.5255 523.9 121.123 529 137.613C528.49 158.805 496.702 166.657 480.871 167.933C507.008 170.487 510.832 197.615 510.832 202.403C483.549 225.638 447.192 208.893 432.424 197.615C414.065 215.999 376.327 222.51 359.753 223.468Z" fill="#F2F2F2"/>
<path d="M359.977 223.468C286.031 222.957 255.008 201.552 248.739 190.913C153.12 244.213 95.1103 219.957 95.1103 223.468C46.153 215.042 40.9258 178.466 44.4318 161.231C36.2723 160.72 21.2707 148.464 14.7898 142.4C-22.5658 83.3048 23.5532 44.9515 24.9567 39.8413C24.9675 39.7705 24.9783 39.6999 24.9892 39.6295C24.9892 39.6922 24.9782 39.7628 24.9567 39.8413C19.612 74.7919 22.0028 145.099 74.1693 148.411C81.8188 148.411 121.788 233.096 248.739 142.4C271.231 179.725 339.502 239.245 432.648 178.732C456.598 196.605 504.015 221.627 502.087 178.732C509.565 187.719 511.056 199.414 511.056 202.403C483.772 225.638 447.416 208.893 432.648 197.616C414.289 215.999 376.551 222.51 359.977 223.468Z" fill="#E5E5E5"/>
</svg>
